<svg width="200" height="200" viewBox="0 0 200 200" fill="none" xmlns="http://www.w3.org/2000/svg">
<g clip-path="url(#clip0_1816_12)">
<rect width="200" height="200" rx="50" fill="#DC1F1F"/>
<path d="M73.518 133.7V108.4H103.818C110.351 108.4 115.051 106.967 117.918 104.1C120.851 101.167 122.318 96.8 122.318 91V84.8C122.318 78.9333 120.885 74.5667 118.018 71.7C115.151 68.8333 110.451 67.4 103.918 67.4H73.418V42.2H106.218C122.485 42.2 134.385 45.8 141.918 53C149.518 60.2 153.318 70.5 153.318 83.9V92C153.318 105.467 149.518 115.8 141.918 123C134.385 130.133 122.518 133.7 106.318 133.7H73.518ZM52.518 170V42.2H83.118V115.5L83.318 129.7V170H52.518Z" fill="#F9F9F9"/>
</g>
<defs>
<clipPath id="clip0_1816_12">
<rect width="200" height="200" rx="50" fill="white"/>
</clipPath>
</defs>
</svg>
