<svg width="2560" height="1080" viewBox="0 0 2560 1080" fill="none" xmlns="http://www.w3.org/2000/svg">
<g clip-path="url(#clip0_1808_12)">
<rect width="2560" height="1080" fill="#F4765B"/>
<path fill-rule="evenodd" clip-rule="evenodd" d="M-412 1149.84L-303 1013.24C-194 876.649 24 603.46 242 622.974C460 642.487 678 954.703 896 974.217C1114 993.73 1332 720.541 1550 564.433C1768 408.325 1986 369.298 2204 427.839C2422 486.379 2640 642.487 2749 720.541L2858 798.595V1384H2749C2640 1384 2422 1384 2204 1384C1986 1384 1768 1384 1550 1384C1332 1384 1114 1384 896 1384C678 1384 460 1384 242 1384C24 1384 -194 1384 -303 1384H-412V1149.84Z" fill="#DD1F1F"/>
<path fill-rule="evenodd" clip-rule="evenodd" d="M-1273 1258.84L-1164 1122.24C-1055 985.649 -837 712.46 -619 731.974C-401 751.487 -183 1063.7 35 1083.22C253 1102.73 471 829.541 689 673.433C907 517.325 1125 478.298 1343 536.839C1561 595.379 1779 751.487 1888 829.541L1997 907.595V1493H1888C1779 1493 1561 1493 1343 1493C1125 1493 907 1493 689 1493C471 1493 253 1493 35 1493C-183 1493 -401 1493 -619 1493C-837 1493 -1055 1493 -1164 1493H-1273V1258.84Z" fill="#DD1F1F" fill-opacity="0.5"/>
</g>
<defs>
<clipPath id="clip0_1808_12">
<rect width="2560" height="1080" fill="white"/>
</clipPath>
</defs>
</svg>
